<svg xmlns="http://www.w3.org/2000/svg" fill="none" viewBox="0 0 200 200" width="400" height="400" class="coolshapes flower-2"><g clip-path="url(#a)"><mask id="b" style="mask-type:alpha" width="200" height="190" x="0" y="5" maskUnits="userSpaceOnUse"><path fill="#fff" d="M106.086 101.973c125.219 40.51 75.067 109.249-2.324 3.183C181.153 211.222 100 237.478 100 106.372c0 131.106-81.146 104.85-3.762-1.216-77.384 106.066-127.543 37.327-2.324-3.183-125.219 40.51-125.219-44.478 0-3.94-125.219-40.517-75.06-109.257 2.324-3.184C18.854-11.224 100-37.48 100 93.633c0-131.113 81.153-104.857 3.762 1.216 77.391-106.073 127.543-37.333 2.324 3.183 125.219-40.516 125.219 44.451 0 3.941"/></mask><g mask="url(#b)"><path fill="#fff" d="M200 0H0v200h200z"/><path fill="url(#c)" d="M200 0H0v200h200z"/><g filter="url(#d)"><ellipse cx="143.611" cy="184.18" fill="#FF58E4" rx="114.679" ry="58.126" transform="rotate(-33.875 143.611 184.18)"/><ellipse cx="68.482" cy="38.587" fill="#00F0FF" rx="69.531" ry="47.75" transform="rotate(-26.262 68.482 38.587)"/></g></g></g><defs><linearGradient id="c" x1="158.5" x2="29" y1="12.5" y2="200" gradientUnits="userSpaceOnUse"><stop stop-color="#0E6FFF"/><stop offset="1" stop-color="#00F0FF"/></linearGradient><clipPath id="a"><path fill="#fff" d="M0 0h200v200H0z"/></clipPath><filter id="d" width="401.584" height="438.421" x="-77.372" y="-94.144" color-interpolation-filters="sRGB" filterUnits="userSpaceOnUse"><feFlood flood-opacity="0" result="BackgroundImageFix"/><feBlend in="SourceGraphic" in2="BackgroundImageFix" result="shape"/><feGaussianBlur result="effect1_foregroundBlur_748_4701" stdDeviation="40"/></filter></defs><g style="mix-blend-mode:overlay" mask="url(#b)"><path fill="gray" stroke="transparent" d="M200 0H0v200h200z" filter="url(#e)"/></g><defs><filter id="e" width="100%" height="100%" x="0%" y="0%" filterUnits="objectBoundingBox"><feTurbulence baseFrequency=".6" numOctaves="5" result="out1" seed="4"/><feComposite in="out1" in2="SourceGraphic" operator="in" result="out2"/><feBlend in="SourceGraphic" in2="out2" mode="overlay" result="out3"/></filter></defs></svg>